# AST/ASF file generated using VICON BodyLanguage
# -----------------------------------------------
:version 1.10
:name VICON
:units
  mass 1.0
  length 0.45
  angle deg
:documentation
   .ast/.asf automatically generated from VICON data using
   VICON BodyBuilder and BodyLanguage model FoxedUp or BRILLIANT.MOD
:root
   order TX TY TZ RX RY RZ
   axis XYZ
   position 0 0 0  
   orientation 0 0 0 
:bonedata
  begin
     id 1 
     name lhipjoint
     direction 0.62366 -0.717238 0.310833 
     length 2.53602 
     axis 0 0 0  XYZ
  end
  begin
     id 2 
     name lfemur
     direction 0.34202 -0.939693 0  
     length 7.40817  
     axis 0 0 20  XYZ
    dof rx ry rz
    limits (-160.0 20.0)
           (-70.0 70.0)
           (-60.0 70.0)
  end
  begin
     id 3 
     name ltibia
     direction 0.34202 -0.939693 0   
     length 7.7045   
     axis 0 0 20   XYZ
    dof rx
    limits (-10.0 170.0)
  end
  begin
     id 4 
     name lfoot
     direction 0.0673888 -0.185149 0.980397   
     length 2.09456   
     axis -90 7.62852e-016 20   XYZ
    dof rx rz
    limits (-45.0 90.0)
           (-70.0 20.0)
  end
  begin
     id 5 
     name ltoes
     direction 1.53575e-011 -4.21994e-011 1   
     length 1.05543   
     axis -90 7.62852e-016 20   XYZ
    dof rx
    limits (-90.0 20.0)
  end
  begin
     id 6 
     name rhipjoint
     direction -0.489018 -0.800347 0.346851   
     length 2.27268  
     axis 0 0 0  XYZ 
  end
  begin
     id 7 
     name rfemur
     direction -0.34202 -0.939693 0   
     length 7.55487   
     axis 0 0 -20   XYZ
    dof rx ry rz
    limits (-160.0 20.0)
           (-70.0 70.0)
           (-70.0 60.0)
  end
  begin
     id 8 
     name rtibia
     direction -0.34202 -0.939693 0   
     length 7.78969   
     axis 0 0 -20   XYZ
    dof rx
    limits (-10.0 170.0)
 end
 begin
     id 9 
     name rfoot
     direction -0.0859318 -0.236096 0.967923   
     length 2.19143  
     axis -90 -7.62852e-016 -20   XYZ
    dof rx rz
    limits (-45.0 90.0)
           (-20.0 70.0)
  end
  begin
     id 10 
     name rtoes
     direction -1.53538e-011 -4.21989e-011 1   
     length 1.09845   
     axis -90 -7.62852e-016 -20   XYZ
    dof rx
    limits (-90.0 20.0)
  end
  begin
     id 11 
     name lowerback
     direction -0.00762546 0.998978 -0.0445553   
     length 1.98161   
     axis 0 0 0   XYZ
    dof rx ry rz
    limits (-20.0 45.0)
           (-30.0 30.0)
           (-30.0 30.0)
  end
  begin
     id 12 
     name upperback
     direction 0.0422361 0.998867 -0.0219156   
     length 1.97558   
     axis 0 0 0   XYZ
    dof rx ry rz
    limits (-20.0 45.0)
           (-30.0 30.0)
           (-30.0 30.0)
  end
  begin
     id 13 
     name thorax
     direction 0.0442465 0.999021 7.47603e-005   
     length 1.97799   
     axis 0 0 0   XYZ
    dof rx ry rz
    limits (-20.0 45.0)
           (-30.0 30.0)
           (-30.0 30.0)
  end
  begin
     id 14 
     name lowerneck
     direction 0.00312169 0.984641 0.174564   
     length 1.78995   
     axis 0 0 0   XYZ
    dof rx ry rz
    limits (-20.0 45.0)
           (-30.0 30.0)
           (-30.0 30.0)
  end
  begin
     id 15 
     name upperneck
     direction -0.0383028 0.985255 -0.166749   
     length 1.83053   
     axis 0 0 0   XYZ
    dof rx ry rz
    limits (-20.0 45.0)
           (-30.0 30.0)
           (-30.0 30.0)
  end
  begin
     id 16
     name head
     direction -0.0129546 0.997059 -0.0755386  
     length 1.84088  
     axis 0 0 0   XYZ
    dof rx ry rz
    limits (-20.0 45.0)
           (-30.0 30.0)
           (-30.0 30.0)
  end
  begin
     id 17 
     name lclavicle
     direction 0.912857 0.370519 -0.171488  
     length 3.51279  
     axis 0 0 0   XYZ
    dof ry rz
    limits (-20.0 10.0)
           (0.0 20.0)
  end
  begin
     id 18 
     name lhumerus
     direction 1 -4.48962e-011 3.64361e-027   
     length 4.95663   
     axis 180 -30 -90   XYZ
    dof rx ry rz
    limits (-60.0 90.0)
           (-90.0 90.0)
           (-90.0 90.0)
  end
  begin
     id 19
     name lradius
     direction 1 -4.48974e-011 5.97202e-027   
     length 3.38177   
     axis 180 -30 -90   XYZ
    dof rx
    limits (-10.0 170.0)
  end
  begin
     id 20
     name lwrist
     direction 1 -4.4896e-011 9.83288e-027   
     length 1.69088   
     axis -9.31221e-015 90 90   XYZ
    dof ry
    limits (-180.0 0.0)
 end
  begin
     id 21 
     name lhand
     direction 1 -4.4902e-011 1.96551e-026   
     length 0.662909   
     axis -1.25475e-014 90 90   XYZ
    dof rx rz
    limits (-90.0 90.0)
           (-45.0 45.0)
  end
  begin
     id 22 
     name lfingers
     direction 1 -4.48971e-011 3.93277e-026   
     length 0.534454   
     axis -2.50945e-014 90 90   XYZ
    dof rx
    limits (0.0 90.0)
  end
  begin
     id 23
     name lthumb
     direction 0.707107 -6.34933e-011 0.707107   
     length 0.767373   
     axis -90 45 -4.80359e-014   XYZ
    dof rx rz
    limits (-45.0 45.0)
           (-45.0 45.0)
  end
  begin
     id 24 
     name rclavicle
     direction -0.900919 0.395364 -0.178976   
     length 3.40627  
     axis 0 0 0   XYZ 
    dof ry rz
    limits (-10.0 20.0)
           (-20.0 0.0)
  end
  begin
     id 25 
     name rhumerus
     direction -1 -4.48969e-011 1.03875e-027  
     length 5.08365   
     axis 180 30 90   XYZ
    dof rx ry rz
    limits (-90.0 60.0)
           (-90.0 90.0)
           (-90.0 90.0)
  end
  begin
     id 26 
     name rradius
     direction -1 -4.48951e-011 5.02733e-027   
     length 3.35984   
     axis 180 30 90   XYZ
    dof rx
    limits (-10.0 170.0)
  end
  begin
     id 27 
     name rwrist
     direction -1 -4.49011e-011 9.82828e-027   
     length 1.67992   
     axis -9.31221e-015 -90 -90   XYZ
    dof ry
    limits (-180.0 0.0)
  end
  begin
     id 28
     name rhand
     direction -1 -4.48894e-011 1.96774e-026   
     length 0.820764   
     axis -1.25475e-014 -90 -90   XYZ
    dof rx rz
    limits (-90.0 90.0)
           (-45.0 45.0)
  end
  begin
     id 29
     name rfingers
     direction -1 -4.49095e-011 3.92833e-026   
     length 0.661721   
     axis -2.50945e-014 -90 -90   XYZ
    dof rx
    limits (0.0 90.0)
  end
  begin
     id 30
     name rthumb
     direction -0.707107 -6.34881e-011 0.707107   
     length 0.950103   
     axis -90 -45 4.80359e-014   XYZ
    dof rx rz
    limits (-45.0 45.0)
           (-45.0 45.0)
  end
:hierarchy
  begin
    root lhipjoint rhipjoint lowerback
    lhipjoint lfemur
    lfemur ltibia
    ltibia lfoot
    lfoot ltoes
    rhipjoint rfemur
    rfemur rtibia
    rtibia rfoot
    rfoot rtoes
    lowerback upperback
    upperback thorax
    thorax lowerneck lclavicle rclavicle
    lowerneck upperneck
    upperneck head
    lclavicle lhumerus
    lhumerus lradius
    lradius lwrist
    lwrist lhand lthumb
    lhand lfingers
    rclavicle rhumerus
    rhumerus rradius
    rradius rwrist
    rwrist rhand rthumb
    rhand rfingers
  end

#!OML:ASF I:\golf\golf\golf 2\Subject 1\2002-09-07\Subject1.ASF
:FULLY-SPECIFIED
:DEGREES
61
root -6.02064 17.8661 0.20269 -77.1239 85.3006 -94.4352
lowerback -0.60909 2.29998 -0.910268
upperback 3.56284 3.06448 3.77188
thorax 3.76243 1.47293 4.53063
lowerneck -14.8575 -2.12174 1.6038
upperneck 39.3179 -0.377586 -3.54443
head 16.6623 0.163772 -1.76248
rclavicle 0 4.69132e-014
rhumerus -7.26059 -5.83245 -102.186
rradius 21.0785
rwrist -37.0818
rhand -14.899 -8.49528
rfingers 7.12502
rthumb 11.2622 -38.1729
lclavicle 0 4.69132e-014
lhumerus -9.59478 -43.4508 109.317
lradius 22.6484
lwrist 39.0687
lhand -2.9872 73.5413
lfingers 7.12502
lthumb -157.274 77.7771
rfemur -28.2066 -0.0703285 12.0245
rtibia 22.953
rfoot -8.04298 -9.26769
rtoes 20.7856
lfemur -29.4578 10.148 -7.61691
ltibia 27.4619
lfoot -10.273 -1.03269
ltoes -20.3732
62
root -6.02095 17.8652 0.203021 -76.9158 85.2469 -94.2292
lowerback -0.559817 2.30869 -0.897928
upperback 3.54106 3.07649 3.81274
thorax 3.70941 1.48026 4.56324
lowerneck -14.7643 -2.13678 1.55853
upperneck 39.3048 -0.362372 -3.58538
head 16.6327 0.159411 -1.76785
rclavicle 2.5842e-014 -6.36111e-015
rhumerus -7.31671 -5.82951 -102.143
rradius 21.0718
rwrist -37.2507
rhand -15.0826 -8.30169
rfingers 7.12502
rthumb 11.085 -37.9889
lclavicle 2.5842e-014 -6.36111e-015
lhumerus -9.63351 -43.4216 109.406
lradius 22.7018
lwrist 39.5538
lhand -3.73924 74.254
lfingers 7.12502
lthumb -157.996 76.9777
rfemur -28.2198 -0.108403 12.1016
rtibia 22.944
rfoot -8.09408 -9.19291
rtoes 21.2778
lfemur -29.4768 10.1864 -7.55772
ltibia 27.4854
lfoot -10.2851 -1.06419
ltoes -20.0803
63
root -6.01934 17.8654 0.203166 -76.6438 85.2411 -93.972
lowerback -0.581171 2.31958 -0.833575
upperback 3.54168 3.08941 3.76084
thorax 3.72687 1.48871 4.47427
lowerneck -14.747 -2.1402 1.55272
upperneck 39.3483 -0.368542 -3.55592
head 16.6516 0.162242 -1.75527
rclavicle -4.23411e-014 -3.26007e-014
rhumerus -7.35926 -5.82365 -102.183
rradius 21.1696
rwrist -37.9566
rhand -15.2202 -8.11959
rfingers 7.12502
rthumb 10.9524 -37.8139
lclavicle -4.23411e-014 -3.26007e-014
lhumerus -9.5669 -43.048 109.339
lradius 22.4949
lwrist 39.1171
lhand -3.60436 74.0358
lfingers 7.12502
lthumb -157.866 77.2112
rfemur -28.2403 -0.165532 12.1217
rtibia 22.944
rfoot -8.18027 -9.09827
rtoes 21.8733
lfemur -29.4912 10.1984 -7.5541
ltibia 27.4951
lfoot -10.23 -1.06227
ltoes -19.9141
64
root -6.01819 17.8662 0.203278 -76.6509 85.2351 -94.02
lowerback -0.608863 2.28227 -0.836751
upperback 3.53715 3.03914 3.75275
thorax 3.7422 1.46319 4.46736
lowerneck -14.81 -2.09301 1.51235
upperneck 39.4503 -0.291617 -3.50667
head 16.7269 0.196959 -1.71544
rclavicle 1.15295e-014 2.14687e-014
rhumerus -7.3734 -5.93527 -102.191
rradius 21.1113
rwrist -37.684
rhand -14.9029 -8.16648
rfingers 7.12502
rthumb 11.2584 -37.8444
lclavicle 1.15295e-014 2.14687e-014
lhumerus -9.44559 -42.6331 109.254
lradius 22.2958
lwrist 38.6711
lhand -3.34077 73.7693
lfingers 7.12502
lthumb -157.613 77.5079
rfemur -28.2889 -0.157496 12.125
rtibia 22.9639
rfoot -8.23709 -9.111
rtoes 21.8939
lfemur -29.5225 10.1863 -7.55203
ltibia 27.4831
lfoot -10.183 -1.03098
ltoes -20.0148
65
root -6.01804 17.8667 0.204872 -76.3881 85.2968 -93.7895
lowerback -0.592952 2.22993 -1.02483
upperback 3.52497 2.97339 3.79733
thorax 3.71481 1.42443 4.61672
lowerneck -14.8469 -2.0339 1.42486
upperneck 39.502 -0.1659 -3.50784
head 16.771 0.236009 -1.67946
rclavicle 2.48481e-014 4.29375e-014
rhumerus -7.37749 -6.02912 -102.144
rradius 20.9355
rwrist -36.8563
rhand -14.3669 -8.35428
rfingers 7.12502
rthumb 11.7753 -38.0033
lclavicle 2.48481e-014 4.29375e-014
lhumerus -9.343 -42.3935 109.251
lradius 22.2811
lwrist 38.8179
lhand -3.33101 74.2133
lfingers 7.12502
lthumb -157.604 77.065
rfemur -28.3423 -0.140016 12.0537
rtibia 22.9893
rfoot -8.30899 -9.11378
rtoes 22.3465
lfemur -29.5503 10.1943 -7.62358
ltibia 27.465
lfoot -10.1887 -1.03265
ltoes -20.273
66
root -6.0169 17.8661 0.206648 -75.9008 85.4175 -93.3295
lowerback -0.6096 2.19591 -1.20765
upperback 3.52915 2.93174 3.78345
thorax 3.7243 1.39737 4.70518
lowerneck -14.8701 -2.00728 1.34777
upperneck 39.5096 -0.0942382 -3.52082
head 16.785 0.251255 -1.65923
rclavicle 3.57812e-015 -8.74653e-015
rhumerus -7.40188 -5.77769 -102.206
rradius 20.9096
rwrist -37.0259
rhand -14.6098 -8.39052
rfingers 7.12502
rthumb 11.5411 -38.0528
lclavicle 3.57812e-015 -8.74653e-015
lhumerus -9.24196 -42.1819 109.2
lradius 22.3128
lwrist 39.1108
lhand -3.17248 75.0477
lfingers 7.12502
lthumb -157.452 76.249
rfemur -28.3901 -0.176145 11.9308
rtibia 23.0113
rfoot -8.30425 -9.08157
rtoes 22.6233
lfemur -29.5683 10.1807 -7.75205
ltibia 27.4495
lfoot -10.2067 -1.02905
ltoes -20.3923
67
root -6.01501 17.8645 0.208908 -75.6568 85.4335 -93.1032
lowerback -0.640497 2.15959 -1.26456
upperback 3.55195 2.88407 3.78152
thorax 3.76729 1.37066 4.73634
lowerneck -14.939 -1.98575 1.30929
upperneck 39.5478 -0.0360342 -3.54866
head 16.8264 0.264757 -1.65634
rclavicle 1.03368e-014 4.13472e-014
rhumerus -7.4112 -5.43574 -102.321
rradius 20.9299
rwrist -37.4988
rhand -15.3199 -8.3175
rfingers 7.12502
rthumb 10.8562 -38.0169
lclavicle 1.03368e-014 4.13472e-014
lhumerus -9.13898 -41.9214 109.119
lradius 22.372
lwrist 39.5412
lhand -3.4625 75.9206
lfingers 7.12502
lthumb -157.73 75.3426
rfemur -28.4283 -0.277805 11.952
rtibia 23.0395
rfoot -8.1723 -9.00847
rtoes 21.8342
lfemur -29.5608 10.1453 -7.7506
ltibia 27.4284
lfoot -10.1941 -0.98153
ltoes -20.0548
68
root -6.0132 17.8649 0.212178 -75.5161 85.3961 -92.9383
lowerback -0.619167 2.14681 -1.28583
upperback 3.57245 2.86758 3.8035
thorax 3.77608 1.36139 4.77063
lowerneck -14.9723 -1.97677 1.29841
upperneck 39.5838 0.000361823 -3.58571
head 16.8563 0.273385 -1.66569
rclavicle 1.07344e-014 -4.92986e-014
rhumerus -7.37462 -5.54955 -102.376
rradius 20.8027
rwrist -37.2226
rhand -15.5376 -8.19596
rfingers 7.12502
rthumb 10.6462 -37.9063
lclavicle 1.07344e-014 -4.92986e-014
lhumerus -9.10529 -41.7524 109.109
lradius 22.393
lwrist 39.9527
lhand -3.83221 76.2974
lfingers 7.12502
lthumb -158.085 74.9239
rfemur -28.4213 -0.349226 12.0305
rtibia 23.0728
rfoot -8.01089 -8.95263
rtoes 20.4925
lfemur -29.5033 10.1397 -7.69185
ltibia 27.4038
lfoot -10.2122 -0.930629
ltoes -20.0057
69
root -6.01234 17.8657 0.214691 -75.5934 85.3918 -92.9978
lowerback -0.590325 2.1471 -1.3033
upperback 3.5937 2.86867 3.80202
thorax 3.78105 1.36125 4.77838
lowerneck -15.0241 -1.97214 1.33364
upperneck 39.612 0.0180761 -3.63628
head 16.8853 0.279046 -1.69289
rclavicle 3.93594e-014 2.38542e-014
rhumerus -7.28169 -5.88699 -102.411
rradius 20.615
rwrist -36.7241
rhand -15.5742 -8.10084
rfingers 7.12502
rthumb 10.6109 -37.8129
lclavicle 3.93594e-014 2.38542e-014
lhumerus -9.0089 -41.5323 109.06
lradius 22.2619
lwrist 39.8532
lhand -3.49797 75.8207
lfingers 7.12502
lthumb -157.764 75.4384
rfemur -28.4146 -0.353489 12.0463
rtibia 23.1032
rfoot -7.92766 -8.95913
rtoes 19.7894
lfemur -29.4683 10.1343 -7.67884
ltibia 27.3869
lfoot -10.1876 -0.910567
ltoes -20.0529
70
root -6.0118 17.865 0.216929 -75.8262 85.4143 -93.2371
lowerback -0.583761 2.13893 -1.28845
upperback 3.61074 2.85766 3.75467
thorax 3.79893 1.35609 4.7204
lowerneck -15.0879 -1.94981 1.40444
upperneck 39.6409 0.0371648 -3.65729
head 16.9176 0.294154 -1.71329
rclavicle -2.127e-014 -7.95139e-016
rhumerus -7.22147 -6.01437 -102.466
rradius 20.5173
rwrist -36.5452
rhand -15.8172 -8.16008
rfingers 7.12502
rthumb 10.3765 -37.8841
lclavicle -2.127e-014 -7.95139e-016
lhumerus -8.89341 -41.1468 108.946
lradius 22.0167
lwrist 39.4301
lhand -2.74897 74.6058
lfingers 7.12502
lthumb -157.045 76.7409
rfemur -28.4324 -0.407122 12.0383
rtibia 23.1309
rfoot -7.79557 -8.9324
rtoes 17.3861
lfemur -29.4677 10.0945 -7.6898
ltibia 27.3722
lfoot -10.0972 -0.902798
ltoes -19.7873
71
root -6.01101 17.8644 0.221024 -76.2807 85.4302 -93.6939
lowerback -0.576819 2.11899 -1.28488
upperback 3.6062 2.83108 3.72242
thorax 3.79426 1.34323 4.68329
lowerneck -15.0358 -1.91923 1.39044
upperneck 39.6178 0.0696134 -3.61039
head 16.8933 0.311652 -1.68265
rclavicle -1.59028e-015 2.78299e-014
rhumerus -7.27934 -5.83394 -102.473
rradius 20.5165
rwrist -36.6456
rhand -16.0528 -8.16061
rfingers 7.12502
rthumb 10.1492 -37.8958
lclavicle -1.59028e-015 2.78299e-014
lhumerus -8.87167 -40.7075 108.912
lradius 21.8257
lwrist 39.1636
lhand -2.18012 73.804
lfingers 7.12502
lthumb -156.499 77.6114
rfemur -28.4441 -0.512953 12.0562
rtibia 23.1609
rfoot -7.34691 -8.91886
rtoes 9.00751
lfemur -29.4694 10.0532 -7.68581
ltibia 27.3532
lfoot -10.0864 -0.911944
ltoes -19.7
72
root -6.01064 17.8643 0.225204 -76.9555 85.4001 -94.3648
lowerback -0.557076 2.0935 -1.30889
upperback 3.60694 2.79756 3.76603
thorax 3.78385 1.3257 4.74059
lowerneck -14.9597 -1.89549 1.35375
upperneck 39.5462 0.129004 -3.64879
head 16.8378 0.323981 -1.68012
rclavicle 3.53837e-014 3.89618e-014
rhumerus -7.35388 -5.46661 -102.403
rradius 20.5545
rwrist -36.9807
rhand -16.2378 -8.09044
rfingers 7.12502
rthumb 9.97078 -37.8343
lclavicle 3.53837e-014 3.89618e-014
lhumerus -8.8293 -40.3588 108.941
lradius 21.739
lwrist 39.1194
lhand -1.96875 73.7676
lfingers 7.12502
lthumb -156.297 77.674
rfemur -28.4455 -0.593738 12.1215
rtibia 23.1865
rfoot -6.74276 -8.88447
rtoes -6.01177
lfemur -29.4644 9.97791 -7.61806
ltibia 27.3319
lfoot -10.0838 -0.856438
ltoes -19.9373
73
root -6.00991 17.8646 0.228381 -77.2119 85.3972 -94.5939
lowerback -0.516689 2.08895 -1.34319
upperback 3.62613 2.79257 3.7871
thorax 3.77898 1.32206 4.78068
lowerneck -14.9438 -1.88548 1.38607
upperneck 39.5045 0.165283 -3.73757
head 16.8125 0.330401 -1.7182
rclavicle -1.13307e-014 -1.35174e-014
rhumerus -7.3823 -5.2289 -102.367
rradius 20.5712
rwrist -37.2436
rhand -16.275 -8.04794
rfingers 7.12502
rthumb 9.93485 -37.7935
lclavicle -1.13307e-014 -1.35174e-014
lhumerus -8.81859 -40.4353 108.94
lradius 21.8428
lwrist 39.6329
lhand -2.09506 74.1087
lfingers 7.12502
lthumb -156.418 77.3172
rfemur -28.4188 -0.630891 12.1444
rtibia 23.198
rfoot -6.68349 -8.87075
rtoes -6.95393
lfemur -29.4236 9.9172 -7.58274
ltibia 27.3129
lfoot -10.0545 -0.797793
ltoes -20.1571
